<svg xmlns="http://www.w3.org/2000/svg" xmlns:xlink="http://www.w3.org/1999/xlink" width="937.193" height="247.038" viewBox="0 0 937.193 247.038">
	  <defs>
		<clipPath id="clip-path">
		  <path id="Pfad_3" data-name="Pfad 3" d="M0,138.174H937.193V-108.864H0Z" transform="translate(0 108.864)" fill="none"/>
		</clipPath>
	  </defs>
	  <g id="Gruppe_31" data-name="Gruppe 31" transform="translate(0 108.864)">
		<g id="Gruppe_3" data-name="Gruppe 3" transform="translate(0 -108.864)" clip-path="url(#clip-path)">
		  <g id="Gruppe_1" data-name="Gruppe 1" transform="translate(3.172 189.261)">
			<path id="Pfad_1" data-name="Pfad 1" d="M27.347,15.949a20.718,20.718,0,0,0-1.509-7.831,20.142,20.142,0,0,0-4.321-6.6,18.964,18.964,0,0,0-6.363-4.4A19.32,19.32,0,0,0,7.527-4.431,19.392,19.392,0,0,0-6.542,1.515a19.7,19.7,0,0,0-4.307,6.565,21.06,21.06,0,0,0-1.484,7.87,20.7,20.7,0,0,0,1.484,7.806A20.24,20.24,0,0,0-6.542,30.32,19.318,19.318,0,0,0,7.527,36.263a19.093,19.093,0,0,0,7.552-1.52,19.84,19.84,0,0,0,6.438-4.423,20.085,20.085,0,0,0,4.321-6.59,20.423,20.423,0,0,0,1.509-7.781m9.213,0A27.94,27.94,0,0,1,34.393,26.9a27.891,27.891,0,0,1-6.336,9.213,29.7,29.7,0,0,1-9.467,6.2A29.016,29.016,0,0,1,7.527,44.462,29.391,29.391,0,0,1-3.662,42.3a28.953,28.953,0,0,1-9.417-6.186,27.589,27.589,0,0,1-6.313-9.175,28.13,28.13,0,0,1-2.154-10.988A28.309,28.309,0,0,1-19.392,4.962,27.891,27.891,0,0,1-13.079-4.29a28.747,28.747,0,0,1,9.429-6.159A29.77,29.77,0,0,1,7.527-12.566,29.484,29.484,0,0,1,18.64-10.449,28.771,28.771,0,0,1,34.393,5.011,28.063,28.063,0,0,1,36.56,15.949" transform="translate(21.546 12.566)" fill="#2b2e34"/>
		  </g>
		  <g id="Gruppe_2" data-name="Gruppe 2" transform="translate(71.404 190.492)">
			<path id="Pfad_2" data-name="Pfad 2" d="M4.841,12.836H8.213q6.311,0,8.934-1.722,2.6-1.733,2.61-5.818c0-2.964-.8-5.056-2.408-6.259s-4.65-1.8-9.136-1.8H4.841Zm0,24.015H7.882a48.673,48.673,0,0,0,6.946-.368,8.892,8.892,0,0,0,3.638-1.3,7.166,7.166,0,0,0,2.521-2.889,8.971,8.971,0,0,0,.887-4.019A9.067,9.067,0,0,0,20.8,23.748a7.484,7.484,0,0,0-3.079-3,10.453,10.453,0,0,0-2.877-.937,25.494,25.494,0,0,0-4.282-.293H4.841ZM-3.814,44.24V-10.113h13.7a43.29,43.29,0,0,1,8.668.631A12.578,12.578,0,0,1,23.317-7.4a12.344,12.344,0,0,1,3.917,4.865,15.647,15.647,0,0,1,1.4,6.64,12.528,12.528,0,0,1-2,7.262,10.521,10.521,0,0,1-5.83,4.069,11.238,11.238,0,0,1,7.491,4.323,14.54,14.54,0,0,1,2.725,9.034,17.055,17.055,0,0,1-1.155,6.274,13.863,13.863,0,0,1-3.268,5.056,12.219,12.219,0,0,1-5.526,3.193q-3.309.933-11.1.926Z" transform="translate(3.814 10.113)" fill="#2b2e34"/>
		  </g>
		</g>
		<g id="Gruppe_4" data-name="Gruppe 4" transform="translate(115.215 81.628)">
		  <path id="Pfad_4" data-name="Pfad 4" d="M0,0V54.353H30.34V46.444H8.834V28.881H30.34V21.124H8.834V7.5H30.34V0Z" fill="#2b2e34"/>
		</g>
		<g id="Gruppe_6" data-name="Gruppe 6" transform="translate(0 -108.864)" clip-path="url(#clip-path)">
		  <g id="Gruppe_5" data-name="Gruppe 5" transform="translate(155.678 190.493)">
			<path id="Pfad_5" data-name="Pfad 5" d="M4.941,12.956h1.6q7.015,0,9.315-1.634c1.534-1.089,2.308-3.018,2.308-5.793q0-4.486-2.471-6.322T6.536-2.631h-1.6Zm-.558,6.869V44.145H-3.893V-10.208H8.427a38.7,38.7,0,0,1,8.414.708,13.212,13.212,0,0,1,5.106,2.333,13.057,13.057,0,0,1,3.9,5.094,16.74,16.74,0,0,1,1.371,6.83q0,6.522-3.157,10.227c-2.1,2.458-5.222,3.942-9.327,4.434L33.454,44.145H23.469L5.384,19.825Z" transform="translate(3.893 10.208)" fill="#2b2e34"/>
		  </g>
		</g>
		<g id="Gruppe_7" data-name="Gruppe 7" transform="translate(198.259 81.628)">
		  <path id="Pfad_7" data-name="Pfad 7" d="M0,0V54.353H8.834V28.806H30.34V21.047H8.834V7.5H30.34V0Z" fill="#2b2e34"/>
		</g>
		<g id="Gruppe_8" data-name="Gruppe 8" transform="translate(238.166 81.628)">
		  <path id="Pfad_8" data-name="Pfad 8" d="M0,0V54.353H28.592V46.444H8.834V0Z" fill="#2b2e34"/>
		</g>
		<g id="Gruppe_11" data-name="Gruppe 11" transform="translate(0 -108.864)" clip-path="url(#clip-path)">
		  <g id="Gruppe_9" data-name="Gruppe 9" transform="translate(266.529 174.637)">
			<path id="Pfad_9" data-name="Pfad 9" d="M10.547,27.325H25.692L20.128,14.931c-.318-.8-.658-1.711-1-2.737s-.7-2.167-1.039-3.436c-.3,1.191-.608,2.308-.951,3.334s-.672,1.965-1.014,2.839ZM34.98,48.679l-6.17-14H7.291l-6.311,14H-8.31L18.013-7.83,44.3,48.679ZM20.266-17.093A4.271,4.271,0,0,1,21.6-20.211a4.383,4.383,0,0,1,3.154-1.318,4.286,4.286,0,0,1,3.118,1.28,4.25,4.25,0,0,1,1.3,3.157,4.538,4.538,0,0,1-1.241,3.268,4.269,4.269,0,0,1-3.181,1.282,4.29,4.29,0,0,1-3.179-1.307,4.4,4.4,0,0,1-1.307-3.243m-13.509,0A4.271,4.271,0,0,1,8.09-20.211a4.383,4.383,0,0,1,3.154-1.318,4.286,4.286,0,0,1,3.118,1.28,4.25,4.25,0,0,1,1.3,3.157,4.538,4.538,0,0,1-1.241,3.268,4.269,4.269,0,0,1-3.181,1.282A4.3,4.3,0,0,1,8.063-13.85a4.395,4.395,0,0,1-1.3-3.243" transform="translate(8.31 21.529)" fill="#2b2e34"/>
		  </g>
		  <g id="Gruppe_10" data-name="Gruppe 10" transform="translate(321.897 189.186)">
			<path id="Pfad_10" data-name="Pfad 10" d="M25.73,8.123a27.245,27.245,0,0,0-7.92-4.79,24.422,24.422,0,0,0-8.782-1.6q-8.918,0-14.5,5.716t-5.589,14.816q0,8.8,5.437,14.523A18.126,18.126,0,0,0,8.1,42.5a24.993,24.993,0,0,0,9.188-1.711,29.129,29.129,0,0,0,8.364-5.158v9.987A25.848,25.848,0,0,1,17.9,49.437a31.222,31.222,0,0,1-9.1,1.269,31.95,31.95,0,0,1-11.532-2.04,26.948,26.948,0,0,1-9.3-6.02,26.908,26.908,0,0,1-6.109-9.188A29.918,29.918,0,0,1-20.272,22.19a29.577,29.577,0,0,1,2.129-11.228A27.153,27.153,0,0,1-11.96,1.735a27.186,27.186,0,0,1,9.29-6.07A30.438,30.438,0,0,1,8.647-6.4a29.944,29.944,0,0,1,9.138,1.393A32.2,32.2,0,0,1,26.211-.8Z" transform="translate(20.272 6.4)" fill="#2b2e34"/>
		  </g>
		</g>
		<g id="Gruppe_12" data-name="Gruppe 12" transform="translate(378.849 81.628)">
		  <path id="Pfad_12" data-name="Pfad 12" d="M19.9,0V20.046H-6.844V0h-8.832V54.353h8.832v-26.4H19.9v26.4h8.834V0Z" transform="translate(15.676)" fill="#2b2e34"/>
		</g>
		<g id="Gruppe_13" data-name="Gruppe 13" transform="translate(435.725 81.628)">
		  <path id="Pfad_13" data-name="Pfad 13" d="M0,0V54.353H30.337V46.444H8.834V28.881h21.5V21.124H8.834V7.5h21.5V0Z" fill="#2b2e34"/>
		</g>
		<g id="Gruppe_18" data-name="Gruppe 18" transform="translate(0 -108.864)" clip-path="url(#clip-path)">
		  <g id="Gruppe_14" data-name="Gruppe 14" transform="translate(476.189 188.337)">
			<path id="Pfad_14" data-name="Pfad 14" d="M0,31.606V-24.9L34.522,8.326c.951.937,1.9,1.938,2.864,3s1.977,2.269,3.041,3.613v-37.69H48.6V33.724L13.37-.1c-.937-.912-1.849-1.874-2.725-2.889S8.92-5.069,8.135-6.183v37.79Z" transform="translate(0 24.902)" fill="#2b2e34"/>
		  </g>
		  <g id="Gruppe_15" data-name="Gruppe 15" transform="translate(552.822 188.337)">
			<path id="Pfad_15" data-name="Pfad 15" d="M10.547,19.663H25.692L20.128,7.268c-.318-.8-.658-1.711-1-2.737s-.7-2.167-1.039-3.436c-.3,1.191-.608,2.308-.951,3.334s-.672,1.965-1.014,2.839ZM34.98,41.016l-6.17-14H7.291l-6.311,14H-8.31L18.013-15.492,44.3,41.016Z" transform="translate(8.31 15.492)" fill="#2b2e34"/>
		  </g>
		  <g id="Gruppe_16" data-name="Gruppe 16" transform="translate(609.013 190.491)">
			<path id="Pfad_16" data-name="Pfad 16" d="M0,0H8.718V33c0,4.906,1.128,8.58,3.4,11.051s5.653,3.688,10.15,3.688,7.858-1.228,10.128-3.688S35.788,37.905,35.788,33V0h8.834V33.823q0,11.028-5.564,16.5T22.279,55.8q-11.216,0-16.754-5.462T0,33.823Z" transform="translate(0)" fill="#2b2e34"/>
		  </g>
		  <g id="Gruppe_17" data-name="Gruppe 17" transform="translate(662.697 189.262)">
			<path id="Pfad_17" data-name="Pfad 17" d="M0,25l7.046-3.256a9.738,9.738,0,0,0,3.676,5.537,11.448,11.448,0,0,0,6.83,1.915A8.764,8.764,0,0,0,23.811,27a7.658,7.658,0,0,0,2.321-5.855q0-4.789-7.947-8.541c-.747-.368-1.3-.647-1.711-.81Q7.5,7.4,4.511,3.862A13.011,13.011,0,0,1,1.52-4.806,13.917,13.917,0,0,1,6.032-15.578q4.5-4.125,11.825-4.119a19.983,19.983,0,0,1,10.062,2.319,12.227,12.227,0,0,1,5.6,6.665L26.614-7.15a11.371,11.371,0,0,0-3.588-3.74,8.339,8.339,0,0,0-4.473-1.191A8.25,8.25,0,0,0,12.9-10.23a6.306,6.306,0,0,0-2.1,4.979q0,4.9,9.213,9.127c.47.227.837.4,1.1.517q8.06,3.727,11.076,7.262a13.252,13.252,0,0,1,3,8.859q0,7.717-4.868,12.267c-3.245,3.029-7.616,4.55-13.141,4.55q-6.94,0-11.382-3.2A14.915,14.915,0,0,1,0,25" transform="translate(0 19.697)" fill="#2b2e34"/>
		  </g>
		</g>
		<g id="Gruppe_19" data-name="Gruppe 19" transform="translate(730.497 81.628)">
		  <path id="Pfad_19" data-name="Pfad 19" d="M0,0V54.353H30.34V46.444H8.834V28.881H30.34V21.124H8.834V7.5H30.34V0Z" fill="#2b2e34"/>
		</g>
		<g id="Gruppe_22" data-name="Gruppe 22" transform="translate(0 -108.864)" clip-path="url(#clip-path)">
		  <g id="Gruppe_20" data-name="Gruppe 20" transform="translate(765.73 188.184)">
			<path id="Pfad_20" data-name="Pfad 20" d="M27.721,16.679c-.1-.431-.266-1.584-.481-3.5-.2-1.584-.368-2.889-.52-3.928a29.184,29.184,0,0,1-.951,3.715,34.085,34.085,0,0,1-1.534,3.787L10.017,45.712-4.2,16.159c-.595-1.216-1.114-2.4-1.545-3.535s-.812-2.256-1.128-3.372C-6.9,10.393-7,11.585-7.155,12.826s-.406,2.56-.722,3.928l-5.83,26.766h-8.135l12.848-56.66L7.04,21.165c.252.545.633,1.443,1.141,2.712S9.3,26.7,10.017,28.554a60.147,60.147,0,0,1,2.446-5.945c.293-.633.52-1.128.672-1.482L28.8-13.141,41.94,43.519h-8.2Z" transform="translate(21.841 13.141)" fill="#2b2e34"/>
		  </g>
		  <g id="Gruppe_21" data-name="Gruppe 21" transform="translate(829.181 188.337)">
			<path id="Pfad_21" data-name="Pfad 21" d="M10.547,19.663H25.692L20.128,7.268c-.315-.8-.658-1.711-1-2.737s-.7-2.167-1.039-3.436c-.3,1.191-.608,2.308-.951,3.334s-.672,1.965-1.014,2.839ZM34.982,41.016l-6.172-14H7.291l-6.311,14H-8.31L18.013-15.492,44.3,41.016Z" transform="translate(8.31 15.492)" fill="#2b2e34"/>
		  </g>
		</g>
		<path id="Pfad_23" data-name="Pfad 23" d="M390.912,29.434h8.834V-24.919h-8.834Z" transform="translate(496.159 106.546)" fill="#2b2e34"/>
		<g id="Gruppe_23" data-name="Gruppe 23" transform="translate(908.603 81.628)">
		  <path id="Pfad_24" data-name="Pfad 24" d="M0,0V54.353H28.59V46.444H8.832V0Z" fill="#2b2e34"/>
		</g>
		<g id="Gruppe_30" data-name="Gruppe 30" transform="translate(0 -108.864)" clip-path="url(#clip-path)">
		  <g id="Gruppe_24" data-name="Gruppe 24" transform="translate(-0.001 -0.001)">
			<path id="Pfad_25" data-name="Pfad 25" d="M52.936,36.925q0-13.833-6.969-21.782c-4.632-5.3-10.933-7.929-18.821-7.929q-12.016,0-18.9,7.929Q1.295,23.09,1.318,36.925q0,13.833,6.842,21.7c4.591,5.26,10.892,7.888,18.987,7.888q11.958,0,18.862-7.888,6.951-7.887,6.928-21.7m43.272,0a62.8,62.8,0,0,1-5.215,25.288A66.017,66.017,0,0,1,75.93,83.746,69.832,69.832,0,0,1,53.478,98.182a71.308,71.308,0,0,1-26.332,4.883A72.213,72.213,0,0,1,.523,98.182,66.417,66.417,0,0,1-21.633,83.746,63.154,63.154,0,0,1-36.574,62.422a64.427,64.427,0,0,1-5.133-25.5,64.715,64.715,0,0,1,5.092-25.538A63.909,63.909,0,0,1-21.633-10.146,64.456,64.456,0,0,1,.4-24.333a74.218,74.218,0,0,1,26.747-4.759,73.379,73.379,0,0,1,26.625,4.759A66.208,66.208,0,0,1,75.93-10.146,65.768,65.768,0,0,1,91.077,11.511a63.763,63.763,0,0,1,5.131,25.413" transform="translate(41.707 29.092)" fill="#00873f"/>
		  </g>
		  <g id="Gruppe_25" data-name="Gruppe 25" transform="translate(162.954 0)">
			<path id="Pfad_26" data-name="Pfad 26" d="M91.423,71.257V3.906q0-16.025-3.964-22.159c-2.671-4.046-7.218-6.093-13.772-6.093-8.135,0-13.811,2.839-16.983,8.514q-4.755,8.448-4.756,34.76V71.257H9.885V3.906q0-16.274-3.924-22.243c-2.587-4.005-7.178-6.009-13.688-6.009-8.135,0-13.854,2.8-17.108,8.389q-4.881,8.322-4.883,34.885V71.257H-72.03V-52.221h42.814v21.533q7.7-13.081,17.777-19.279t23.784-6.175q15.025,0,24.621,5.8Q46.544-44.521,50.738-32.9c4.8-7.847,10.681-13.647,17.568-17.487,6.926-3.837,15.1-5.757,24.453-5.757a47.746,47.746,0,0,1,19.486,3.715,35.469,35.469,0,0,1,14.022,11.183,36.867,36.867,0,0,1,6.426,13.729Q134.572-19.69,134.57-2.1v73.36Z" transform="translate(72.03 56.142)" fill="#00873f"/>
		  </g>
		  <g id="Gruppe_26" data-name="Gruppe 26" transform="translate(393.381 -0.001)">
			<path id="Pfad_27" data-name="Pfad 27" d="M51.489,27.822c-.835-7.01-3.506-12.6-8.013-16.858a23.576,23.576,0,0,0-16.69-6.343c-7.094,0-12.728,1.92-16.942,5.8q-6.26,5.821-8.387,17.4ZM94.387,52.4H.495Q.621,66.733,7.84,74.475q7.2,7.761,20.4,7.763c6.594,0,12.186-1.253,16.692-3.715a24.531,24.531,0,0,0,10.35-11.1l32.756,13.23Q82.159,94.8,67.262,102.518q-14.9,7.7-36.555,7.72-32.3,0-51.786-17.9-19.467-17.9-19.488-47.279,0-28.793,19.488-47.906Q-1.548-21.942,28.245-21.92q30.672,0,48.407,19.32Q94.366,16.68,94.387,50.314Z" transform="translate(40.567 21.92)" fill="#00873f"/>
		  </g>
		  <g id="Gruppe_27" data-name="Gruppe 27" transform="translate(553.539 1.252)">
			<path id="Pfad_28" data-name="Pfad 28" d="M0,70.557V-52.921H41.062v29.087c4.257-10.559,10.057-18.528,17.36-23.829Q69.44-55.612,85.087-55.59c1.711,0,3.463.041,5.215.166s3.506.334,5.3.542L91.43-15.238a46.923,46.923,0,0,0-15.022-2.587q-15.9,0-24.537,9.721c-5.716,6.47-8.6,15.692-8.6,27.585V70.557Z" transform="translate(0 55.59)" fill="#00873f"/>
		  </g>
		  <g id="Gruppe_28" data-name="Gruppe 28" transform="translate(658.906 -0.001)">
			<path id="Pfad_29" data-name="Pfad 29" d="M56.133,36.644c0-9.64-2.587-17.235-7.72-22.867s-12.143-8.43-20.99-8.43q-13.333,0-20.988,8.389C1.342,19.284-1.2,26.963-1.2,36.644q0,14.395,7.72,22.742,7.7,8.326,20.906,8.3,13.272,0,20.99-8.3,7.7-8.326,7.72-22.742M94.4-24.95V98.528H54.422V78.457c-5.716,8.555-12.1,14.857-19.236,18.819q-10.705,6.011-25.123,6.009-24.722,0-39.516-18.025Q-44.226,67.23-44.226,36.894q0-30.168,15.483-47.987,15.46-17.778,41.6-17.777,13.959,0,24.038,5.925Q46.972-17,54.172-4.667V-24.95Z" transform="translate(44.226 28.871)" fill="#00873f"/>
		  </g>
		  <g id="Gruppe_29" data-name="Gruppe 29" transform="translate(818.981 0)">
			<path id="Pfad_30" data-name="Pfad 30" d="M0,65.515,9.013,32.257A70.859,70.859,0,0,0,30,45.026a63.311,63.311,0,0,0,23.033,4.466c5.467,0,9.64-.878,12.479-2.63a8.408,8.408,0,0,0,4.3-7.636q0-8.2-17.235-12.227c-3.756-.919-6.8-1.67-9.1-2.337-13.021-3.588-22.495-8.262-28.42-14.1q-8.826-8.765-8.845-22.7,0-17.966,13.52-28.71,13.52-10.766,36.6-10.765A110.111,110.111,0,0,1,80.5-48.865a135.219,135.219,0,0,1,25.12,8.471L96.56-10.431a73.783,73.783,0,0,0-17.609-8.932A54.471,54.471,0,0,0,61.09-22.408c-4.965,0-8.721.792-11.224,2.337a7.355,7.355,0,0,0-3.8,6.717q0,6.576,17.149,11.1c2.589.751,4.55,1.293,5.843,1.586,15.106,4.339,25.581,9.431,31.506,15.231q8.823,8.762,8.845,23.659,0,18.966-14.562,30.63c-9.683,7.8-22.536,11.684-38.475,11.684a117.723,117.723,0,0,1-30.213-3.715A97.216,97.216,0,0,1,0,65.515" transform="translate(0 51.618)" fill="#00873f"/>
		  </g>
		</g>
		<path id="Pfad_32" data-name="Pfad 32" d="M1.277-33.88H934.735v-6.6H1.277Z" transform="translate(1.621 86.791)" fill="#2b2e34"/>
	  </g>
	</svg>
	